<svg xmlns="http://www.w3.org/2000/svg" viewBox="0 0 536 535"><style>path{fill:#000;} @media (prefers-color-scheme: dark){path {fill:#FFF;}}</style><path d="M340.55,261.8a48.39,48.39,0,1,0-48.39-48.38A48.29,48.29,0,0,0,340.55,261.8Z"/><path d="M472.27,251.46h64C534.15,113.26,422.53,1.63,284.32-.49v64C387.18,65.62,470.17,148.6,472.27,251.46Z"/><path d="M448.27,283.46c-2.13,104.19-87.25,188-191.95,188a193,193,0,0,1-40.06-4.19l-14.65,62.31a256.81,256.81,0,0,0,54.71,5.88c140.05,0,253.81-112.46,256-252Z"/><path d="M340.29,116.9c-53.25,0-96.77,43.27-96.77,96.52v1.28l-60.67,88.57-4.1-.25a71.55,71.55,0,0,0-40.7,12.54L64.42,285.31c-.06-1.94-.1-3.89-.1-5.85,0-104.7,83.81-189.82,188-191.95v-64c-132.78,2-241,105.15-251.21,235.8h0a.28.28,0,0,1,0,.09c-.06.84-.11,1.67-.17,2.51-.07,1.12-.15,2.24-.21,3.36L.6,267.8c-.06,1.23-.1,2.46-.14,3.69,0,.7-.05,1.4-.06,2.11-.05,1.95-.08,3.9-.08,5.86h0v.05c0,1.47,0,2.95,0,4.42A256,256,0,0,0,10,349.56l97.55,40.24A72.53,72.53,0,0,0,251.2,375.46v-3.32l87-62.21h2.05a96.52,96.52,0,0,0,0-193ZM228.93,396.2c-11,27.65-43.52,41-71.17,29.44A53.56,53.56,0,0,1,129.86,399l31.23,12.8a40,40,0,0,0,31.23-73.73l-32.77-13.57a53.93,53.93,0,0,1,39.94.77,52,52,0,0,1,29.44,29.44A53,53,0,0,1,228.93,396.2ZM340.29,277.93a64.39,64.39,0,0,1-.51-128.77h.51a64.39,64.39,0,1,1,0,128.77Z"/></svg>
