<?xml version="1.0" standalone="no"?>
<!DOCTYPE svg PUBLIC "-//W3C//DTD SVG 20010904//EN"
 "http://www.w3.org/TR/2001/REC-SVG-20010904/DTD/svg10.dtd">
<svg version="1.0" xmlns="http://www.w3.org/2000/svg"
 width="700.000000pt" height="700.000000pt" viewBox="0 0 700.000000 700.000000"
 preserveAspectRatio="xMidYMid meet">
<metadata>
Created by potrace 1.14, written by Peter Selinger 2001-2017
</metadata>
<g transform="translate(0.000000,700.000000) scale(0.100000,-0.100000)"
fill="#000000" stroke="none">
<path d="M4034 6468 c-36 -10 -55 -27 -75 -73 -33 -71 -21 -165 27 -220 14
-16 38 -45 52 -64 15 -19 32 -39 37 -45 6 -6 28 -33 50 -61 22 -27 45 -54 51
-60 37 -36 115 -137 109 -143 -9 -10 -185 -30 -325 -38 -93 -5 -126 -3 -173
11 -60 17 -205 87 -312 149 -33 20 -66 39 -73 42 -8 4 -80 45 -160 92 -243
140 -445 231 -572 258 -107 22 -300 -9 -430 -69 -191 -90 -323 -262 -376 -493
-17 -70 -19 -128 -19 -534 0 -471 3 -521 30 -655 43 -207 122 -320 217 -310
21 2 44 8 51 12 7 4 6 -2 -3 -14 -133 -185 -184 -286 -238 -478 -21 -72 -30
-119 -46 -228 -10 -66 -19 -219 -20 -328 l-1 -106 -120 -39 c-382 -122 -721
-270 -796 -347 -69 -71 -95 -192 -61 -284 10 -26 36 -66 59 -90 55 -56 120
-84 196 -84 52 -1 73 6 173 55 123 61 301 134 461 189 l101 36 11 -62 c6 -34
13 -75 16 -92 7 -41 64 -214 81 -247 13 -25 12 -28 -8 -41 -13 -7 -47 -28 -76
-45 -29 -18 -56 -32 -58 -32 -3 0 -29 -15 -57 -34 -29 -18 -92 -59 -142 -91
-140 -90 -176 -141 -183 -257 -7 -112 51 -209 155 -258 96 -45 194 -27 320 58
121 82 364 222 385 222 5 0 48 -32 96 -70 109 -88 94 -77 177 -131 94 -62 214
-130 305 -172 154 -73 210 -97 223 -97 6 0 24 -6 38 -14 15 -7 69 -27 120 -44
342 -111 599 -167 1009 -217 101 -12 255 -19 427 -20 186 0 193 -1 194 -20 0
-11 1 -79 2 -150 3 -186 18 -205 166 -205 93 0 134 12 158 48 16 25 17 65 18
522 1 411 -1 500 -13 527 -20 42 -57 60 -132 62 l-25 1 0 185 c1 101 3 186 5
189 3 2 26 6 51 9 26 3 56 11 68 18 44 28 46 48 45 571 0 473 -1 495 -20 521
-22 31 -73 51 -115 45 -16 -3 -29 0 -30 6 -3 31 -4 363 -1 372 1 6 17 11 33
12 59 2 89 14 111 45 22 30 22 32 22 515 1 298 -3 497 -9 515 -14 42 -53 68
-103 69 -23 0 -45 5 -49 12 -4 6 -7 60 -8 121 l0 110 49 16 c61 21 69 30 360
379 126 151 243 291 260 310 17 20 49 57 71 84 89 109 249 301 255 306 27 22
92 119 100 151 11 39 7 101 -10 143 -10 27 -55 76 -72 77 -58 5 -2014 2 -2034
-3z m-237 -2714 c174 -102 259 -348 204 -588 -32 -135 -139 -267 -246 -303
-208 -69 -406 73 -459 328 -17 82 -15 208 4 279 18 69 66 161 107 206 82 88
149 116 265 110 62 -3 87 -9 125 -32z"/>
</g>
</svg>
