<svg xmlns="http://www.w3.org/2000/svg" width="901" height="901" viewBox="0 0 901 901" fill="none">
  <mask id="mask0_144_650" style="mask-type:alpha" maskUnits="userSpaceOnUse" x="0" y="0" width="901" height="901">
    <path
      d="M448.648 19.3519C222.228 19.3519 36.7327 193.941 19.1089 415.809L250.128 511.332C269.699 497.945 293.345 490.126 318.788 490.126C321.069 490.126 323.337 490.186 325.587 490.305L428.335 341.404C428.335 340.694 428.317 340.002 428.317 339.302C428.317 249.668 501.231 176.736 590.869 176.736C680.51 176.736 753.424 249.668 753.424 339.302C753.424 428.929 680.51 501.871 590.869 501.871C589.632 501.871 588.415 501.833 587.188 501.798L440.657 606.356C440.734 608.275 440.801 610.205 440.801 612.136C440.801 679.428 386.066 734.152 318.788 734.152C259.739 734.152 210.355 692 199.165 636.175L33.9554 567.867C85.1077 748.795 251.33 881.422 448.648 881.422C686.701 881.422 879.678 688.439 879.678 450.392C879.681 212.321 686.698 19.3519 448.648 19.3519Z"
      fill="black" />
    <path
      d="M289.221 673.371L236.272 651.504C245.659 671.05 261.884 687.391 283.445 696.388C330.027 715.797 383.749 693.677 403.166 647.074C412.567 624.518 412.637 599.613 403.307 577.007C394.004 554.398 376.447 536.75 353.867 527.335C331.469 518.029 307.474 518.363 286.374 526.312L341.08 548.942C375.449 563.261 391.691 602.728 377.376 637.082C363.067 671.451 323.587 687.704 289.221 673.371Z"
      fill="black" />
    <path
      d="M699.189 339.288C699.189 279.568 650.603 230.975 590.876 230.975C531.156 230.975 482.549 279.564 482.549 339.288C482.549 399.011 531.149 447.59 590.876 447.59C650.603 447.59 699.189 399.011 699.189 339.288ZM509.686 339.102C509.686 294.161 546.118 257.743 591.055 257.743C635.995 257.743 672.424 294.161 672.424 339.102C672.424 384.042 636.002 420.46 591.055 420.46C546.122 420.457 509.686 384.042 509.686 339.102Z"
      fill="black" />
  </mask>
  <g mask="url(#mask0_144_650)">
    <g style="mix-blend-mode:soft-light">
      <rect x="0.848633" y="0.525757" width="900" height="900" fill="url(#paint0_linear_144_650)" />
    </g>
  </g>
  <defs>
    <linearGradient id="paint0_linear_144_650" x1="450.849" y1="0.525757" x2="450.849" y2="900.526"
      gradientUnits="userSpaceOnUse">
      <stop stop-color="white" stop-opacity="0.8" />
      <stop offset="0.817708" stop-color="white" stop-opacity="0" />
    </linearGradient>
  </defs>
</svg>
